<svg width="316" height="201" viewBox="0 0 316 201" fill="none" xmlns="http://www.w3.org/2000/svg">
<path d="M68.8489 165.391C65.5642 165.708 63.9174 164.26 63.3304 161.303C62.7147 158.047 61.28 155.674 58.821 153.098L29.8049 124.153C28.9125 123.234 27.946 123.629 28.0613 124.823L30.5951 152.106C30.9088 156.396 32.1767 158.082 36.1321 159.508C38.9349 160.443 39.8657 161.76 39.92 163.362C40.1506 165.751 38.4516 167.924 34.0624 168.248L16.8425 169.91C13.4582 170.237 11.7633 168.291 11.5327 165.902C11.3789 164.309 11.8416 162.858 13.8261 161.562C16.7484 159.571 17.2722 157.713 16.7594 153.442L12.8671 113.129C12.5534 108.84 11.5841 107.125 8.33508 105.731C6.12947 104.738 5.40731 103.502 5.24393 101.81C5.11281 99.4112 6.31412 97.2859 9.69838 96.9592L24.828 95.4984C29.3072 95.0659 31.6508 96.447 34.328 99.2025L56.866 122.444C58.0954 123.732 58.9336 123.048 58.8279 121.953L57.5593 108.814C57.2456 104.525 56.1767 102.819 52.5296 101.464C50.0253 100.5 49.2036 99.2732 49.0403 97.5811C48.9091 95.1826 50.2999 92.9385 54.1915 92.6632L71.71 90.9718C75.0943 90.645 76.6896 92.6007 76.9203 94.9896C77.0836 96.6818 76.6114 98.0334 74.6364 99.4297C71.7045 101.32 71.1808 103.179 71.6936 107.45L76.6176 157.408C77.0309 161.688 75.717 164.728 72.0341 165.084L68.8489 165.391Z" fill="white"/>
<path d="M120.22 163.853C103.628 164.387 90.329 152.21 89.807 136.018C89.2592 119.027 101.746 106.018 119.237 105.454C135.629 104.925 148.345 117.622 148.873 134.014C149.408 150.605 137.011 163.311 120.22 163.853ZM107.688 128.938C108.033 139.633 114.948 152.416 122.545 152.172C127.642 152.007 131.205 147.69 130.992 141.094C130.628 129.799 123.712 117.016 116.116 117.261C111.019 117.425 107.463 121.942 107.688 128.938Z" fill="white"/>
<path d="M179.898 163.553C169.305 163.162 162.045 157.961 162.379 145.766L163.029 122.074C163.147 117.776 162.494 116.057 159.837 114.484C157.973 113.132 157.409 111.816 157.45 110.317C157.513 108.018 158.967 106.057 162.266 106.148L163.663 106.286L176.058 106.626C179.757 106.728 181.412 108.374 181.205 112.269L180.223 140.753C179.984 145.849 182.503 148.819 187.401 148.953C192.599 149.096 196.088 145.89 196.215 141.292L196.717 122.999C196.835 118.701 196.082 116.979 193.127 115.298C191.06 114.04 190.396 112.722 190.537 111.225C190.601 108.926 192.155 106.968 195.853 107.069L197.35 107.21L209.646 107.548C213.744 107.66 214.9 109.293 214.779 113.691L213.765 146.976C213.647 151.274 214.103 152.887 216.461 154.453C218.525 155.81 219.192 157.028 219.148 158.628C219.085 160.927 217.63 162.888 214.332 162.797L200.737 162.424C197.838 162.345 196.871 161.118 196.254 158.1C195.898 156.489 194.312 155.945 193.168 157.515C190.257 161.536 185.193 163.798 179.898 163.553Z" fill="white"/>
<path d="M230.785 163.937C227.496 163.677 226.357 161.581 226.538 159.288C226.664 157.693 227.457 156.552 229.652 155.422C232.063 154.107 232.788 152.56 233.126 148.273L234.977 124.846C235.315 120.559 234.652 118.802 232.178 117.102C230.386 115.656 229.891 114.313 230.009 112.817C230.19 110.525 231.743 108.641 235.033 108.901L236.42 109.111L248.981 110.103C251.274 110.284 252.491 111.383 253.016 113.632L253.373 115.466C253.585 116.586 254.674 116.772 255.458 115.731C258.803 111.481 261.713 110.206 265.302 110.49C269.289 110.805 271.501 113.286 271.06 118.869C270.571 125.05 267.035 132.996 263.147 132.689C262.05 132.602 261.001 131.917 260.09 130.742C258.913 129.144 257.955 128.567 256.36 128.441C254.067 128.26 252.346 129.729 252.086 133.019L250.787 149.468C250.349 153.746 250.913 155.496 253.486 157.204C255.776 158.689 256.471 160.048 256.353 161.543C256.172 163.836 254.412 165.804 250.723 165.512L230.785 163.937Z" fill="white"/>
<path d="M286.728 108.976C283.947 108.654 282.354 106.758 282.711 103.678C283.379 97.917 288.589 93.7895 294.748 94.5035C300.907 95.2175 305.233 100.451 304.565 106.212C304.197 109.391 302.224 110.773 299.344 110.439L286.728 108.976ZM279.258 116.969C279.523 114.684 281.144 112.859 284.422 113.239L285.801 113.5L297.82 114.893C301.595 115.331 302.889 117.192 302.36 121.761L298.571 154.443C298.076 158.714 298.476 160.472 300.699 162.139C302.723 163.783 303.28 165.055 303.096 166.645C302.831 168.93 301.21 170.755 297.832 170.363L278.164 168.083C274.886 167.703 273.825 165.567 274.09 163.282C274.274 161.693 275.108 160.581 277.344 159.532C279.801 158.307 280.581 156.786 281.076 152.515L283.783 129.171C284.278 124.9 283.679 123.119 281.269 121.33C279.531 119.82 279.085 118.459 279.258 116.969Z" fill="white"/>
<path d="M98.0023 96.7683C95.5396 96.8735 94.2926 95.5655 94.1983 93.3575C94.1222 91.5742 94.8357 90.3526 96.3135 89.0984C97.869 87.6707 98.5013 86.5377 99.164 84.1273C100.786 78.2727 103.574 67.8593 105.976 60.3549C108.988 51.2081 111.911 43.9367 114.958 37.5959C116.6 34.2078 117.827 33.0494 120.459 32.937C121.648 32.8862 123.014 32.998 123.948 32.9581C125.137 32.9073 126.404 32.6831 127.762 32.625C130.055 32.5271 131.21 33.6689 132.482 35.5713C137.671 43.5172 141.519 51.9456 146.145 62.638C149.628 70.4865 152.211 77.1824 154.315 82.6226C155.074 84.4619 156.229 85.6036 157.816 86.8971C159.137 87.9467 159.86 88.9368 159.928 90.5503C160.005 92.3337 159.062 94.1606 156.514 94.2694L135.453 95.1689C132.906 95.2777 131.4 93.8956 131.306 91.6876C131.222 89.7344 132.353 88.3249 134.097 87.3146C136.01 86.297 136.299 85.0936 136.248 83.9047C136.198 82.7157 135.8 81.3715 135.317 80.0309C134.919 78.6866 134.119 77.87 132.339 78.0311L123.677 78.4011C120.705 78.528 117.393 78.6695 114.505 78.7928C112.637 78.8726 111.902 79.5846 111.539 81.0464C111.32 81.9065 110.961 83.4533 111.008 84.5573C111.063 85.8311 111.785 86.8212 113.623 88.0188C115.727 89.4604 116.46 90.7052 116.526 92.2338C116.602 94.0172 115.836 96.0067 113.288 96.1155L98.0023 96.7683ZM115.416 66.2475C114.983 68.0526 115.443 68.8837 117.227 68.8076L128.437 68.3288C130.22 68.2526 130.446 67.5624 129.583 65.3021C128.231 61.5314 125.043 54.6061 122.657 50.5392C121.927 49.3793 121.166 49.4969 120.619 50.6263C118.455 55.7382 116.413 61.6958 115.416 66.2475Z" fill="white"/>
<path d="M184.81 95.7107C177.586 95.5785 171.477 93.8385 168.262 91.5225C165.047 89.2064 164.725 86.4843 167.307 81.571C167.999 79.7905 168.943 78.3516 170.558 78.3622C172.258 78.3733 173.523 79.8266 176.227 82.3093C179.859 85.9031 182.994 87.4536 185.714 87.4714C188.774 87.4914 191.167 85.467 191.181 83.257C191.2 80.4521 188.322 78.5633 181.367 76.2228C170.849 72.839 166.371 68.6446 166.417 61.5898C166.477 52.41 175.274 46.0073 187.769 46.089C193.804 46.1284 199.742 48.0372 202.618 50.181C206.342 52.6704 206.582 54.882 204.083 60.1358C203.392 61.7464 202.453 62.4202 201.348 62.413C200.158 62.4052 198.636 61.1203 195.848 58.552C192.721 55.7265 189.756 54.1771 187.036 54.1593C184.231 54.141 182.01 55.9115 181.994 58.2915C181.977 61.0114 184.689 62.2192 193.171 64.9946C202.841 68.1179 207.146 72.6511 207.099 79.791C207.036 89.4808 197.815 95.7956 184.81 95.7107Z" fill="white"/>
<path d="M217.5 94.8756C214.698 94.7376 213.593 92.9811 213.689 91.0285C213.756 89.6701 214.401 88.6806 216.238 87.6648C218.338 86.4917 218.83 85.1542 219.009 81.5037L220.787 45.4224C220.966 41.7718 220.443 40.2993 218.218 38.828C216.655 37.7298 216.2 36.6011 216.263 35.3276C216.444 33.3792 217.631 31.7356 220.433 31.8736L232.743 32.4799C235.12 32.597 236.505 33.8567 236.379 36.4036L235.057 61.5289C234.994 62.8024 236.093 62.9416 237.081 61.884C239.151 59.603 240.945 57.734 243.164 55.8859C248.399 51.5482 254.305 49.1159 258.55 49.3249C261.182 49.4546 262.551 52.7559 262.671 58.9743C262.651 61.1009 261.501 61.9804 259.027 62.1139C255.784 62.2946 251.675 62.773 248.136 63.7901C246.757 64.1477 246.274 65.3154 247.684 66.0656C252.083 68.3248 254.454 72.0159 256.168 76.9512L258.635 83.881C259.38 86.0452 260.481 87.8866 261.954 89.0655C263.428 90.2445 264.045 91.5514 263.961 93.2493C263.848 95.5415 262.325 97.0835 260.033 96.9706L250.44 96.4981C245.855 96.2723 244.401 92.9667 243.515 88.4977L241.884 81.8644C240.543 76.2667 238.737 73.1991 236.105 73.0695C235.001 73.0151 234.463 73.5843 234.404 74.7729L234.049 81.9891C233.869 85.6397 234.307 87.108 236.452 88.4902C238.265 89.6859 238.89 90.823 238.823 92.1813C238.727 94.134 237.366 95.8541 234.394 95.7077L217.5 94.8756Z" fill="white"/>
</svg>
